<svg xmlns="http://www.w3.org/2000/svg" viewBox="0 0 518.36 64.64"><defs><style>.cls-1{fill:none;}.cls-1,.cls-2,.cls-3,.cls-4,.cls-5{stroke:#395b7e;stroke-miterlimit:10;stroke-width:1.5px;}.cls-2{fill:#f1e520;}.cls-2,.cls-3,.cls-4,.cls-5{stroke-linecap:round;}.cls-3{fill:#fbfdfd;}.cls-4{fill:#e84422;}.cls-5{fill:#4f81c1;}.cls-6{fill:#30aa4e;}</style></defs><g id="Calque_2" data-name="Calque 2"><g id="Calque_1-2" data-name="Calque 1"><path class="cls-1" d="M47.54,54.16c2.06-1.11,4.25-2.41,6.6-3.95,9-5.94,14.25-15,16.06-18.6H67C63,38.21,55.23,47.3,47.54,54.16Z"/><path class="cls-2" d="M51.8,11.71,41.15,1.06,25.48,16.73h6.24c-.33,4.3-1.37,14.09-4.3,20.76C24.26,44.71,11.13,62.06,1.28,63.43l4.3-.35.18,0c16.45-2.72,29.08-16.5,33.54-22.8a48,48,0,0,0,7.48-18.06H41.32l7.44-7.44Z"/><path class="cls-3" d="M59.23,17.65,62,14.89,55.3,8.21l-3.5,3.5-3,3-7.44,7.44h5.46A48,48,0,0,1,39.3,40.25c-4.46,6.3-17.09,20.08-33.54,22.8l6.05-.51A56.57,56.57,0,0,0,46.43,42.4C53.28,34.11,55.18,29,55.7,26.51H50.37l4.32-4.32Z"/><path class="cls-4" d="M62.89,14l-.9.9-2.76,2.76-4.54,4.54-4.32,4.32H55.7c-.52,2.45-2.42,7.6-9.27,15.89A56.57,56.57,0,0,1,11.81,62.54L14,62.35h0c6.41-.58,13.12-1.25,15.5-1.7a59.32,59.32,0,0,0,18-6.49C55.23,47.3,63,38.21,67,31.61H65.61l3-2.95,2.15-2.15,2.35-2.35Z"/><path class="cls-5" d="M76.31,20.91l-3.25,3.25-2.35,2.35-2.15,2.15-3,2.95H70.2c-1.81,3.6-7,12.66-16.06,18.6-2.35,1.54-4.54,2.84-6.6,3.95a59.32,59.32,0,0,1-18,6.49c-2.67.51-10.79,1.29-17.83,1.91a68.07,68.07,0,0,1-9.85.92c-.59,0-1.19.05-1.8.05,0,0,23.18,2,43.34-3.3,17.71-4.64,29.53-15.06,32.91-20.34a44,44,0,0,0,4.17-8.28H87Z"/><path class="cls-6" d="M99,16h29.23v8.22H110.89v6.68h14.83V38.6H110.89V54.23H99Z"/><path class="cls-6" d="M134.61,16h11.82V44.81h18.45v9.42H134.61Z"/><path class="cls-6" d="M165.27,16H178.4l7.71,12.91L193.83,16h13.06L192,38.2v16H180.17v-16Z"/><path class="cls-6" d="M254,38.57l10.36,3.13A19.08,19.08,0,0,1,261.06,49a14.18,14.18,0,0,1-5.57,4.41A20.87,20.87,0,0,1,247,54.88a24.76,24.76,0,0,1-10.19-1.81A16.19,16.19,0,0,1,230,46.69q-2.87-4.56-2.87-11.68,0-9.49,5.05-14.59t14.29-5.1q7.22,0,11.36,2.92a17.15,17.15,0,0,1,6.14,9l-10.43,2.32A9,9,0,0,0,252.4,27,6.66,6.66,0,0,0,250,24.9a7.47,7.47,0,0,0-9.37,2.5Q239,29.8,239,34.93q0,6.36,1.93,8.72a7.61,7.61,0,0,0,10.55.45A11.72,11.72,0,0,0,254,38.57Z"/><path class="cls-6" d="M267.6,35.13q0-9.38,5.22-14.59t14.54-5.22q9.54,0,14.71,5.13t5.17,14.36a23.49,23.49,0,0,1-2.26,11,16.08,16.08,0,0,1-6.52,6.68,21.58,21.58,0,0,1-10.64,2.39,24.55,24.55,0,0,1-10.71-2.06,16.13,16.13,0,0,1-6.87-6.53A21.59,21.59,0,0,1,267.6,35.13Zm11.82,0q0,5.79,2.16,8.32a8.14,8.14,0,0,0,11.75,0c1.39-1.65,2.09-4.62,2.09-8.89,0-3.6-.73-6.24-2.18-7.9a7.44,7.44,0,0,0-5.91-2.49,7.2,7.2,0,0,0-5.74,2.53Q279.41,29.33,279.42,35.18Z"/><path class="cls-6" d="M312.47,16H328l6,23.28L340,16H355.5V54.23h-9.68V25.05l-7.46,29.18H329.6l-7.44-29.18V54.23h-9.69Z"/><path class="cls-6" d="M361.56,35.13q0-9.38,5.21-14.59t14.54-5.22q9.54,0,14.71,5.13t5.17,14.36a23.49,23.49,0,0,1-2.26,11,16.08,16.08,0,0,1-6.52,6.68,21.54,21.54,0,0,1-10.63,2.39,24.48,24.48,0,0,1-10.71-2.06,16.15,16.15,0,0,1-6.88-6.53A21.59,21.59,0,0,1,361.56,35.13Zm11.82,0c0,3.86.71,6.63,2.15,8.32a8.14,8.14,0,0,0,11.75,0c1.39-1.65,2.09-4.62,2.09-8.89,0-3.6-.73-6.24-2.18-7.9a7.44,7.44,0,0,0-5.91-2.49,7.21,7.21,0,0,0-5.74,2.53Q373.38,29.33,373.38,35.18Z"/><path class="cls-6" d="M406.71,54.23V16h19.7a28.83,28.83,0,0,1,8.38.94,8.92,8.92,0,0,1,4.67,3.49,10.56,10.56,0,0,1,1.78,6.19,10.21,10.21,0,0,1-5.1,9.24A14.14,14.14,0,0,1,432,37.34a11.71,11.71,0,0,1,3.08,1.41,12,12,0,0,1,1.89,2,14.93,14.93,0,0,1,1.66,2.38l5.72,11.09H431l-6.31-11.69a8.91,8.91,0,0,0-2.14-2.95,5,5,0,0,0-2.9-.89h-1V54.23Zm11.88-22.76h5A17.55,17.55,0,0,0,426.7,31a3.18,3.18,0,0,0,1.92-1.2,3.5,3.5,0,0,0,.74-2.22,3.52,3.52,0,0,0-1.17-2.84q-1.17-1-4.41-1h-5.19Z"/><path class="cls-6" d="M448.1,16h31.68v8.17H459.94v6.08h18.4V38h-18.4v7.54h20.41v8.67H448.1Z"/><path class="cls-6" d="M483.66,41.57l11.24-.7A8.54,8.54,0,0,0,496.39,45a6.25,6.25,0,0,0,5.22,2.32,5.79,5.79,0,0,0,3.9-1.18,3.57,3.57,0,0,0,1.37-2.76,3.51,3.51,0,0,0-1.31-2.66c-.87-.78-2.88-1.52-6.05-2.22q-7.77-1.74-11.09-4.64a9.32,9.32,0,0,1-3.34-7.38,10,10,0,0,1,1.71-5.58,11.37,11.37,0,0,1,5.14-4.12,24,24,0,0,1,9.41-1.5q7.32,0,11.18,2.73t4.58,8.67L506,27.38a6,6,0,0,0-1.87-3.76,6,6,0,0,0-3.93-1.17,4.74,4.74,0,0,0-3.1.87A2.67,2.67,0,0,0,496,25.45a2.15,2.15,0,0,0,.86,1.64,9.86,9.86,0,0,0,4,1.41A49.21,49.21,0,0,1,512,31.88a11.58,11.58,0,0,1,4.88,4.24,10.7,10.7,0,0,1,1.53,5.66,12.1,12.1,0,0,1-2,6.78,12.71,12.71,0,0,1-5.68,4.71,23,23,0,0,1-9.22,1.61q-9.75,0-13.51-3.76A14.78,14.78,0,0,1,483.66,41.57Z"/></g></g></svg>